<svg width="48" height="48" viewBox="0 0 48 48" fill="none" xmlns="http://www.w3.org/2000/svg">
<path fill-rule="evenodd" clip-rule="evenodd" d="M32.94 48V29.412H39.18L40.1136 22.1688H32.9376V17.544C32.9376 15.4464 33.5208 14.016 36.5304 14.016H40.3656V7.536C38.5082 7.33834 36.6415 7.2422 34.7736 7.248C29.244 7.248 25.4592 10.6248 25.4592 16.824V22.1688H19.2V29.412H25.4568V48H2.6496C1.1856 48 0 46.8144 0 45.3504V2.6496C0 1.1856 1.1856 0 2.6496 0H45.3504C46.8144 0 48 1.1856 48 2.6496V45.3504C48 46.8144 46.8144 48 45.3504 48H32.94Z" fill="#686868"/>
</svg>
