<svg width="207" height="41" viewBox="0 0 207 41" fill="none" xmlns="http://www.w3.org/2000/svg">
<circle cx="20.5" cy="20.5" r="20.5" fill="white"/>
<circle cx="29.0618" cy="20.7062" r="8.56176" fill="#FF9900"/>
<circle cx="20.7761" cy="12.4206" r="8.56176" fill="#1E2083"/>
<circle cx="11.9382" cy="20.7062" r="8.56176" fill="#FF9900"/>
<circle cx="20.5" cy="29.2679" r="8.56176" fill="#1E2083"/>
<path d="M52.0455 9.72727L57.25 26.7727H57.4432L62.6477 9.72727H68.9432L61.0909 33H53.6023L45.75 9.72727H52.0455ZM73.0142 33H66.9688L74.821 9.72727H82.3097L90.1619 33H84.1165L78.6506 15.5909H78.4688L73.0142 33ZM72.2074 23.8409H84.8438V28.1136H72.2074V23.8409ZM92.6676 9.72727H99.6335L105.543 24.1364H105.815L111.724 9.72727H118.69V33H113.213V18.7045H113.02L107.429 32.8523H103.929L98.3381 18.625H98.1449V33H92.6676V9.72727ZM134.778 16.7045C134.703 15.8712 134.366 15.2235 133.767 14.7614C133.176 14.2917 132.331 14.0568 131.233 14.0568C130.506 14.0568 129.9 14.1515 129.415 14.3409C128.93 14.5303 128.566 14.7917 128.324 15.125C128.081 15.4508 127.956 15.8258 127.949 16.25C127.934 16.5985 128.002 16.9053 128.153 17.1705C128.313 17.4356 128.54 17.6705 128.835 17.875C129.138 18.072 129.502 18.2462 129.926 18.3977C130.35 18.5492 130.828 18.6818 131.358 18.7955L133.358 19.25C134.509 19.5 135.525 19.8333 136.403 20.25C137.29 20.6667 138.032 21.1629 138.631 21.7386C139.237 22.3144 139.695 22.9773 140.006 23.7273C140.316 24.4773 140.475 25.3182 140.483 26.25C140.475 27.7197 140.104 28.9811 139.369 30.0341C138.634 31.0871 137.578 31.8939 136.199 32.4545C134.828 33.0152 133.172 33.2955 131.233 33.2955C129.286 33.2955 127.589 33.0038 126.142 32.4205C124.695 31.8371 123.57 30.9508 122.767 29.7614C121.964 28.572 121.551 27.0682 121.528 25.25H126.915C126.96 26 127.161 26.625 127.517 27.125C127.873 27.625 128.362 28.0038 128.983 28.2614C129.612 28.5189 130.339 28.6477 131.165 28.6477C131.922 28.6477 132.566 28.5455 133.097 28.3409C133.634 28.1364 134.047 27.8523 134.335 27.4886C134.623 27.125 134.771 26.7083 134.778 26.2386C134.771 25.7992 134.634 25.4242 134.369 25.1136C134.104 24.7955 133.695 24.5227 133.142 24.2955C132.597 24.0606 131.9 23.8447 131.051 23.6477L128.619 23.0795C126.604 22.6174 125.017 21.8712 123.858 20.8409C122.699 19.803 122.123 18.4015 122.131 16.6364C122.123 15.197 122.509 13.9356 123.29 12.8523C124.07 11.7689 125.15 10.9242 126.528 10.3182C127.907 9.71212 129.479 9.40909 131.244 9.40909C133.047 9.40909 134.612 9.71591 135.938 10.3295C137.271 10.9356 138.305 11.7879 139.04 12.8864C139.775 13.9848 140.15 15.2576 140.165 16.7045H134.778ZM163.131 9.72727V33H158.358L149.097 19.5682H148.949V33H143.324V9.72727H148.165L157.324 23.1364H157.517V9.72727H163.131ZM166.668 33V9.72727H182.895V14.2955H172.293V19.0682H182.065V23.6477H172.293V28.4318H182.895V33H166.668ZM185.656 14.2955V9.72727H205.327V14.2955H198.27V33H192.724V14.2955H185.656Z" fill="#FF9900"/>
</svg>
