<svg width="48" height="48" viewBox="0 0 48 48" fill="none" xmlns="http://www.w3.org/2000/svg">
<path d="M46.9032 7.494C48 12.84 48 24 48 24C48 24 48 35.16 46.9032 40.506C46.2936 43.461 44.5104 45.786 42.252 46.572C38.1504 48 24 48 24 48C24 48 9.8568 48 5.748 46.572C3.48 45.774 1.6992 43.452 1.0968 40.506C0 35.16 0 24 0 24C0 24 0 12.84 1.0968 7.494C1.7064 4.539 3.4896 2.214 5.748 1.428C9.8568 -3.57628e-07 24 0 24 0C24 0 38.1504 -3.57628e-07 42.252 1.428C44.52 2.226 46.3008 4.548 46.9032 7.494ZM19.2 34.5L33.6 24L19.2 13.5V34.5Z" fill="#686868"/>
</svg>
